<?xml version="1.0" encoding="UTF-8"?>
<svg width="237px" height="118px" viewBox="0 0 237 118" version="1.1" xmlns="http://www.w3.org/2000/svg" xmlns:xlink="http://www.w3.org/1999/xlink">
    <!-- Generator: Sketch 59.1 (86144) - https://sketch.com -->
    <title>Combined Shape</title>
    <desc>Created with Sketch.</desc>
    <g id="Page-1" stroke="none" stroke-width="1" fill="none" fill-rule="evenodd">
        <g id="LogoDogHeroesRosso" fill="#DE2826" fill-rule="nonzero">
            <path d="M142.8,76.8 C156.28,76.8 163.8,86.01 163.8,97.29 C163.8,108.57 156.31,117.79 142.8,117.79 C129.29,117.79 121.8,108.56 121.8,97.29 C121.8,86.02 129.32,76.8 142.8,76.8 Z M70.97,76.8 C85.16,76.8 90.44,87.2 90.44,96.53 L90.44,96.53 L90.44,98.48 C90.412806,100.013999 89.1642315,101.2448 87.63,101.25 L87.63,101.25 L63.63,101.25 C64.4478688,104.915318 67.7672745,107.473238 71.52,107.33 C74.5305251,107.540523 77.4074485,106.055784 78.98,103.48 C79.3434498,102.964466 80.0067696,102.755643 80.6,102.97 L80.6,102.97 L88.29,105.69 C88.6785543,105.827457 88.9875135,106.12804 89.1355962,106.51267 C89.2836789,106.897301 89.256058,107.327467 89.06,107.69 C85.42,114.43 79.43,117.79 70.97,117.79 C57.28,117.79 50.97,107.3 50.97,97.29 C50.97,87.28 57.25,76.8 70.97,76.8 Z M185.89,76.8 C200.05,76.8 205.33,87.2 205.36,96.53 L205.36,96.53 L205.36,98.48 C205.332806,100.013999 204.084232,101.2448 202.55,101.25 L202.55,101.25 L178.55,101.25 C179.367869,104.915318 182.687275,107.473238 186.44,107.33 C189.450525,107.540523 192.327448,106.055784 193.9,103.48 C194.26345,102.964466 194.92677,102.755643 195.52,102.97 L195.52,102.97 L203.21,105.69 C203.598554,105.827457 203.907514,106.12804 204.055596,106.51267 C204.203679,106.897301 204.176058,107.327467 203.98,107.69 C200.34,114.43 194.35,117.79 185.89,117.79 C172.19,117.79 165.89,107.3 165.89,97.29 C165.89,87.28 172.16,76.8 185.89,76.8 Z M222.24,76.82 C226.982236,76.6339581 231.536666,78.685303 234.54,82.36 C235.00548,82.9462497 234.940066,83.7922718 234.39,84.3 L234.39,84.3 L229.39,88.9 C228.812673,89.4221151 227.92378,89.3865594 227.39,88.82 C226.1182,87.336719 224.273515,86.4671338 222.32,86.43 C221.670641,86.3632003 221.021592,86.5593855 220.517958,86.9746956 C220.014324,87.3900058 219.698106,87.9898051 219.64,88.64 C219.64,90.14 220.9,91.16 224.29,92.35 C226.752649,93.1303753 229.150053,94.1033802 231.46,95.26 C234.94,96.9 237.06,99.73 236.98,104.53 C236.98,111.87 231.3,117.78 222.4,117.78 C214.23,117.78 209.34,114.2 206.23,108.26 C205.860158,107.566587 206.119181,106.704665 206.81,106.33 L206.81,106.33 L213.81,102.6 C214.158904,102.401769 214.575392,102.360416 214.956464,102.48617 C215.337536,102.611924 215.647609,102.893041 215.81,103.26 C217.31,106.42 219.48,108.01 222.48,108.01 C224.45,108.01 225.94,107.14 225.94,105.33 C225.94,103.2 224.21,102.41 220.03,100.91 L220.03,100.91 L217.35,99.91 C211.91,97.71 208.52,94.31 208.52,88.4 C208.52,82.18 213.96,76.82 222.24,76.82 Z M44.95,61.97 C45.731976,61.9754495 46.3645505,62.608024 46.37,63.39 L46.37,63.39 L46.37,115.75 C46.3645045,116.530336 45.7303556,117.160019 44.95,117.16 L44.95,117.16 L33.75,117.16 C32.9696444,117.160019 32.3354955,116.530336 32.33,115.75 L32.33,115.75 L32.33,94.99 C32.33,94.764566 32.2404467,94.5483652 32.0810408,94.3889592 C31.9216348,94.2295533 31.705434,94.14 31.48,94.14 L31.48,94.14 L14.89,94.14 C14.664566,94.14 14.4483652,94.2295533 14.2889592,94.3889592 C14.1295533,94.5483652 14.04,94.764566 14.04,94.99 L14.04,94.99 L14.04,115.77 C14.0400094,116.145694 13.8900844,116.505857 13.6234913,116.770573 C13.3568983,117.035288 12.9956849,117.182664 12.62,117.180036 L12.62,117.180036 L1.42,117.180036 C0.641278503,117.180036 0.01,116.548721 0.01,115.77 L0.01,115.77 L0.01,63.41 C0.01,62.6296444 0.639663708,61.9954955 1.42,61.99 L1.42,61.99 L12.62,61.99 C12.9966074,61.99 13.35779,62.1396067 13.6240916,62.4059084 C13.8903933,62.67221 14.04,63.0333926 14.04,63.41 L14.04,63.41 L14.04,80.41 C14.04,80.635434 14.1295533,80.8516348 14.2889592,81.0110408 C14.4483652,81.1704467 14.664566,81.26 14.89,81.26 L14.89,81.26 L31.47,81.26 C31.7006719,81.2627782 31.9225658,81.1716798 32.0847417,81.0076182 C32.2469175,80.8435566 32.3354447,80.6206243 32.33,80.39 L32.33,80.39 L32.33,63.39 C32.3354495,62.608024 32.968024,61.9754495 33.75,61.97 L33.75,61.97 Z M118.36,76.8 C119.711994,76.8036146 121.05503,77.0195801 122.34,77.44 C123.043042,77.6697352 123.452008,78.4006533 123.28,79.12 L123.28,79.12 L121.2,87.91 C121.108332,88.2925911 120.859916,88.6189561 120.515558,88.8092093 C120.171199,88.9994626 119.762682,89.0360442 119.39,88.91 C118.524509,88.6117972 117.615423,88.4597195 116.7,88.46 C111.58,88.46 107.32,93.19 107.32,103.05 L107.32,103.05 L107.32,117.16 L94.39,117.16 L94.39,78.88 C94.39,78.0957557 95.0257557,77.46 95.81,77.46 L95.81,77.46 L105.94,77.46 C106.724244,77.46 107.36,78.0957557 107.36,78.88 L107.36,78.88 L107.36,81.8 C109.45,78.68 113.7,76.8 118.36,76.8 Z M142.8,87.87 C137.48,87.87 134.8,91.41 134.8,97.33 C134.8,103.25 137.44,106.8 142.8,106.8 L142.8,106.8 L142.8,106.76 C148.16,106.76 150.8,103.24 150.8,97.33 C150.8,91.42 148.12,87.87 142.8,87.87 Z M70.96,86.18 C67.93,86.18 65.31,87.92 64.02,91.52 C63.9613803,91.6926038 63.990439,91.8829382 64.0978912,92.0301875 C64.2053434,92.1774368 64.3777412,92.2631724 64.56,92.26 L64.56,92.26 L77.56,92.26 C77.725847,92.2597042 77.8830321,92.1859116 77.989205,92.0585042 C78.0953778,91.9310968 78.1396158,91.7631816 78.11,91.6 C77.48,88.4 74.88,86.18 70.96,86.18 Z M185.85,86.18 C182.82,86.18 180.2,87.92 178.91,91.52 C178.85138,91.6926038 178.880439,91.8829382 178.987891,92.0301875 C179.095343,92.1774368 179.267741,92.2631724 179.45,92.26 L179.45,92.26 L192.45,92.26 C192.615847,92.2597042 192.773032,92.1859116 192.879205,92.0585042 C192.985378,91.9310968 193.029616,91.7631816 193,91.6 C192.37,88.4 189.77,86.18 185.85,86.18 Z M129.25,10.89 C129.59,10.99 129.89,11.67 130,11.98 C131.51,15.83 129.31,19.12 125.75,21.28 L124.65,21.83 C124.150378,22.0469458 123.635698,22.227418 123.11,22.37 C123.11,22.37 123.03,22.16 123,22.16 C123.939007,24.0453473 124.425226,26.1237614 124.42,28.23 C124.42,36.43 117.72,41.48 109.2,41.48 C107.910546,41.4813966 106.624171,41.3540991 105.36,41.1 C104.683148,40.9593117 103.978864,41.1291639 103.440549,41.5629138 C102.951172,41.9572318 102.645731,42.5319616 102.589371,43.1525743 L102.58,43.34 C102.58,44.84 103.84,45.71 105.97,45.71 L113.38,45.71 C122.76,45.71 127.89,50.12 127.89,57.77 C127.89,62.5 126.07,66.05 122.53,68.33 C118.99,70.61 114.53,71.88 109.28,71.88 C97.93,71.88 90.67,67.23 90.67,58.79 C90.7976833,56.0483495 91.827748,53.4257274 93.6,51.33 C93.7653946,51.1222299 93.7653946,50.8277701 93.6,50.62 C92.4094185,48.9052284 91.8188045,46.8451104 91.92,44.76 C92.1160159,41.5624725 93.8100648,38.6451499 96.49,36.89 C96.6271273,36.8053024 96.7211127,36.665628 96.7479202,36.5066974 C96.7747278,36.3477668 96.731758,36.1849916 96.63,36.06 C94.8920526,33.8138988 93.9777726,31.0392886 94.04,28.2 C94.04,20.08 100.74,14.8 109.18,14.8 C109.67,14.8 110.18,14.8 110.63,14.87 C112.366153,14.9992257 114.07572,15.3647802 115.71152,15.9559059 L116.2,16.14 L117,16.14 L117,16.14 C121.512318,16.1412975 125.819666,14.2559265 128.88,10.94 C128.991902,10.8751573 129.124901,10.8571844 129.25,10.89 Z M102.15023,56.0461866 C101.72893,56.4284144 101.464398,56.9504522 101.402912,57.5116294 L101.39,57.7 C101.39,60.61 104.47,62.43 109.28,62.43 C113.46,62.45 116.38,61.11 116.38,58.59 C116.38,56.54 114.64,55.51 111.09,55.51 L105.57,55.51 C105,55.51 104.44,55.51 103.87,55.45 C103.239465,55.4061662 102.618341,55.621489 102.15023,56.0461866 Z M68.99,14.83 C82.5,14.83 89.99,24.04 89.99,35.32 C89.99,46.6 82.48,55.83 68.99,55.83 C55.51,55.83 47.99,46.59 47.99,35.32 C47.99,24.05 55.48,14.83 68.99,14.83 Z M18.68,5.68434189e-14 C33.27,5.68434189e-14 45.96,9.01 45.96,27.6 C45.96,46.19 33.27,55.19 18.68,55.19 L18.68,55.19 L2.83,55.19 C1.26703416,55.19 -1.76930858e-05,53.9229658 -1.76930858e-05,52.36 L-1.76930858e-05,52.36 L-1.76930858e-05,2.84 C-0.00265829858,2.0877062 0.294327613,1.36531295 0.825343961,0.832420214 C1.35636031,0.299527484 2.07770151,5.68434189e-14 2.83,5.68434189e-14 L2.83,5.68434189e-14 Z M68.99,25.83 L68.99,25.87 C63.63,25.87 60.99,29.36 60.99,35.28 C60.99,41.2 63.67,44.75 68.99,44.75 C74.31,44.75 76.99,41.19 76.99,35.28 C76.99,29.37 74.36,25.83 68.99,25.83 L68.99,25.83 Z M27.67,15.62 C24.6703404,13.1227049 20.8498101,11.8289992 16.95,11.99 L16.95,11.99 L16.55,11.99 C15.7994373,11.99 15.0796158,12.2881599 14.5488878,12.8188878 C14.0181599,13.3496158 13.72,14.0694373 13.72,14.82 L13.72,14.82 L13.72,40.43 C13.72,41.1805627 14.0181599,41.9003842 14.5488878,42.4311122 C15.0796158,42.9618401 15.7994373,43.26 16.55,43.26 L16.55,43.26 L16.95,43.26 C20.8511121,43.4182124 24.6717927,42.1208917 27.67,39.62 C30.51,37.16 31.93,33.24 31.93,27.62 C31.93,22 30.51,18.06 27.67,15.62 Z M109.2,24.32 C107.023998,24.32 105.26,26.0839981 105.26,28.26 C105.26,30.4360019 107.023998,32.2 109.2,32.2 C111.376002,32.2 113.14,30.4360019 113.14,28.26 C113.14,26.0839981 111.376002,24.32 109.2,24.32 Z M135.11,19.93 C135.3033,19.6869948 135.656995,19.6467004 135.9,19.8400001 C136.143005,20.0332997 136.1833,20.3869947 135.99,20.63 C134.951799,21.9844664 133.570964,23.0373532 131.99,23.68 C131.71,23.82 131.41,23.98 131.29,23.68 C131.17,23.38 131.37,23.38 131.64,23.25 C133.049533,22.4500709 134.238426,21.3127202 135.1,19.94 L135.1,19.94 Z M133.6,16.43 C133.81,15.98 133.99,15.82 134.46,16.08 C134.93,16.34 134.67,16.89 134.46,17.34 C133.307834,19.7686938 131.521736,21.8415357 129.29,23.34 C128.88,23.63 128.45,23.95 128.17,23.51 C127.89,23.07 128.2,23.02 128.6,22.73 C130.741306,21.0507529 132.454687,18.8884653 133.6,16.42 L133.6,16.42 Z" id="Combined-Shape"></path>
        </g>
    </g>
</svg>