<?xml version="1.0" encoding="UTF-8"?>
<svg xmlns="http://www.w3.org/2000/svg" width="80" height="40" viewBox="0 0 80 40" fill="none">
  <path d="M48.2062 26.0803C52.7567 26.0803 55.2953 29.2079 55.2953 33.0385C55.2953 36.869 52.7668 40 48.2062 40C43.6455 40 41.117 36.8656 41.117 33.0385C41.117 29.2113 43.6556 26.0803 48.2062 26.0803ZM23.9579 26.0803C28.7482 26.0803 30.5306 29.612 30.5306 32.7804V33.4426C30.5214 33.9635 30.0999 34.3815 29.582 34.3832H21.4801C21.7562 35.6279 22.8768 36.4966 24.1436 36.4479C25.1599 36.5194 26.1311 36.0152 26.6619 35.1405C26.7846 34.9654 27.0085 34.8945 27.2088 34.9673L29.8048 35.891C29.9359 35.9377 30.0402 36.0397 30.0902 36.1704C30.1402 36.301 30.1309 36.4471 30.0647 36.5702C28.8359 38.859 26.8138 40 23.9579 40C19.3365 40 17.2064 36.4377 17.2064 33.0385C17.2064 29.6392 19.3264 26.0803 23.9579 26.0803ZM62.7524 26.0803C67.5325 26.0803 69.3149 29.612 69.325 32.7804V33.4426C69.3159 33.9635 68.8944 34.3815 68.3764 34.3832H60.2746C60.5507 35.6279 61.6712 36.4966 62.9381 36.4479C63.9544 36.5194 64.9255 36.0152 65.4564 35.1405C65.5791 34.9654 65.803 34.8945 66.0033 34.9673L68.5993 35.891C68.7304 35.9377 68.8347 36.0397 68.8847 36.1704C68.9347 36.301 68.9254 36.4471 68.8592 36.5702C67.6304 38.859 65.6083 40 62.7524 40C58.1276 40 56.0008 36.4377 56.0008 33.0385C56.0008 29.6392 58.1174 26.0803 62.7524 26.0803ZM75.0234 26.0871C76.6242 26.0239 78.1617 26.7205 79.1756 27.9684C79.3327 28.1675 79.3106 28.4548 79.1249 28.6272L77.437 30.1893C77.2421 30.3666 76.9421 30.3545 76.7619 30.1622C76.3326 29.6584 75.7098 29.3631 75.0504 29.3505C74.8312 29.3279 74.6121 29.3945 74.442 29.5355C74.272 29.6765 74.1653 29.8802 74.1457 30.101C74.1457 30.6104 74.571 30.9568 75.7154 31.3609C76.5467 31.6259 77.356 31.9563 78.1358 32.3491C79.3106 32.906 80.0263 33.8671 79.9993 35.4971C79.9993 37.9896 78.0818 39.9966 75.0774 39.9966C72.3194 39.9966 70.6686 38.7809 69.6187 36.7637C69.4939 36.5283 69.5813 36.2356 69.8145 36.1083L72.1776 34.8417C72.2954 34.7743 72.436 34.7603 72.5646 34.803C72.6932 34.8457 72.7979 34.9412 72.8527 35.0658C73.3591 36.1389 74.0916 36.6788 75.1044 36.6788C75.7694 36.6788 76.2724 36.3834 76.2724 35.7687C76.2724 35.0454 75.6884 34.7771 74.2773 34.2678L73.3726 33.9282C71.5362 33.1811 70.3918 32.0265 70.3918 30.0195C70.3918 27.9073 72.2282 26.0871 75.0234 26.0871ZM15.1741 21.0442C15.4381 21.0461 15.6517 21.2609 15.6535 21.5264V39.3072C15.6517 39.5722 15.4376 39.7861 15.1741 39.7861H11.3933C11.1298 39.7861 10.9158 39.5722 10.9139 39.3072V32.2574C10.9139 32.1809 10.8837 32.1074 10.8299 32.0533C10.7761 31.9992 10.7031 31.9688 10.627 31.9688H5.02655C4.95045 31.9688 4.87746 31.9992 4.82365 32.0533C4.76984 32.1074 4.73961 32.1809 4.73961 32.2574V39.314C4.73961 39.4416 4.689 39.5639 4.599 39.6538C4.50901 39.7437 4.38707 39.7938 4.26025 39.7929H0.479373C0.216493 39.7929 0.00338765 39.5785 0.00338765 39.314V21.5332C0.00338765 21.2682 0.215948 21.0529 0.479373 21.051H4.26025C4.38738 21.051 4.50931 21.1018 4.59921 21.1923C4.6891 21.2827 4.73961 21.4053 4.73961 21.5332V27.3062C4.73961 27.3828 4.76984 27.4562 4.82365 27.5103C4.87746 27.5645 4.95045 27.5949 5.02655 27.5949H10.6236C10.7015 27.5958 10.7764 27.5649 10.8311 27.5092C10.8859 27.4535 10.9157 27.3777 10.9139 27.2994V21.5264C10.9158 21.2609 11.1293 21.0461 11.3933 21.0442H15.1741ZM39.9558 26.0803C40.4122 26.0815 40.8655 26.1549 41.2993 26.2976C41.5366 26.3757 41.6747 26.6239 41.6166 26.8682L40.9145 29.8531C40.8835 29.9831 40.7997 30.0939 40.6834 30.1585C40.5672 30.2231 40.4293 30.2355 40.3035 30.1927C40.0113 30.0914 39.7044 30.0398 39.3954 30.0399C37.667 30.0399 36.2289 31.6462 36.2289 34.9945V39.7861H31.864V26.7867C31.864 26.5203 32.0786 26.3044 32.3434 26.3044H35.763C36.0278 26.3044 36.2424 26.5203 36.2424 26.7867V27.7782C36.9479 26.7187 38.3826 26.0803 39.9558 26.0803ZM48.2062 29.8395C46.4102 29.8395 45.5055 31.0417 45.5055 33.052C45.5055 35.0624 46.3967 36.2679 48.2062 36.2679V36.2543C50.0156 36.2543 50.9068 35.059 50.9068 33.052C50.9068 31.0451 50.0021 29.8395 48.2062 29.8395ZM23.9546 29.2656C22.9317 29.2656 22.0472 29.8565 21.6118 31.079C21.592 31.1377 21.6018 31.2023 21.6381 31.2523C21.6743 31.3023 21.7325 31.3314 21.7941 31.3303H26.1826C26.2386 31.3302 26.2916 31.3052 26.3275 31.2619C26.3633 31.2186 26.3782 31.1616 26.3682 31.1062C26.1556 30.0195 25.2779 29.2656 23.9546 29.2656ZM62.7389 29.2656C61.716 29.2656 60.8316 29.8565 60.3961 31.079C60.3763 31.1377 60.3861 31.2023 60.4224 31.2523C60.4587 31.3023 60.5169 31.3314 60.5784 31.3303H64.9669C65.0229 31.3302 65.076 31.3052 65.1118 31.2619C65.1476 31.2186 65.1626 31.1616 65.1526 31.1062C64.9399 30.0195 64.0622 29.2656 62.7389 29.2656ZM43.632 3.69811C43.7467 3.73207 43.848 3.96298 43.8852 4.06826C44.3949 5.37567 43.6522 6.49291 42.4505 7.22642L42.0791 7.41319C41.9105 7.48686 41.7367 7.54815 41.5592 7.59657C41.5592 7.59657 41.5322 7.52526 41.5221 7.52526C41.8391 8.1655 42.0032 8.8713 42.0015 9.58655C42.0015 12.3712 39.7397 14.0861 36.8635 14.0861C36.4282 14.0866 35.994 14.0433 35.5672 13.957C35.3387 13.9093 35.101 13.9669 34.9193 14.1142C34.7541 14.2481 34.651 14.4433 34.6319 14.6541L34.6288 14.7177C34.6288 15.2271 35.0541 15.5225 35.7732 15.5225H38.2746C41.4411 15.5225 43.1729 17.0201 43.1729 19.618C43.1729 21.2242 42.5585 22.4297 41.3635 23.204C40.1684 23.9783 38.6628 24.4095 36.8905 24.4095C33.059 24.4095 30.6082 22.8305 30.6082 19.9643C30.6513 19.0333 30.999 18.1427 31.5973 17.431C31.6532 17.3605 31.6532 17.2605 31.5973 17.1899C31.1954 16.6076 30.996 15.908 31.0302 15.1999C31.0964 14.1141 31.6682 13.1234 32.5729 12.5274C32.6192 12.4986 32.6509 12.4512 32.66 12.3972C32.669 12.3432 32.6545 12.288 32.6202 12.2455C32.0335 11.4828 31.7248 10.5406 31.7459 9.57636C31.7459 6.81891 34.0076 5.02589 36.8568 5.02589C37.0222 5.02589 37.1944 5.02589 37.3463 5.04966C37.9324 5.09355 38.5095 5.21769 39.0617 5.41842L39.2266 5.48094H39.4966C41.0199 5.48138 42.474 4.84113 43.5071 3.71509C43.5448 3.69307 43.5897 3.68696 43.632 3.69811ZM34.4837 19.0326C34.3415 19.1624 34.2522 19.3397 34.2314 19.5302L34.2271 19.5942C34.2271 20.5824 35.2668 21.2004 36.8905 21.2004C38.3016 21.2072 39.2873 20.7522 39.2873 19.8964C39.2873 19.2003 38.7 18.8505 37.5016 18.8505H35.6381C35.4457 18.8505 35.2567 18.8505 35.0642 18.8301C34.8514 18.8152 34.6417 18.8884 34.4837 19.0326ZM23.2895 5.03608C27.8502 5.03608 30.3787 8.16368 30.3787 11.9942C30.3787 15.8248 27.8435 18.9592 23.2895 18.9592C18.739 18.9592 16.2004 15.8214 16.2004 11.9942C16.2004 8.16708 18.7288 5.03608 23.2895 5.03608ZM6.30597 0C11.2312 0 15.5151 3.05968 15.5151 9.37261C15.5151 15.6855 11.2312 18.7418 6.30597 18.7418H0.955358C0.427735 18.7418 5.89389e-06 18.3116 5.89389e-06 17.7808V0.964428C-0.000885517 0.708959 0.0993704 0.463643 0.27863 0.282679C0.457889 0.101716 0.701398 0 0.955358 0H6.30597ZM23.2895 8.77154V8.78513C21.4801 8.78513 20.5889 9.97029 20.5889 11.9806C20.5889 13.991 21.4936 15.1965 23.2895 15.1965C25.0854 15.1965 25.9901 13.9876 25.9901 11.9806C25.9901 9.97368 25.1023 8.77154 23.2895 8.77154ZM9.3408 5.30436C8.32818 4.45631 7.03845 4.01698 5.72196 4.07165H5.58693C5.33355 4.07165 5.09056 4.1729 4.9114 4.35313C4.73224 4.53336 4.63158 4.7778 4.63158 5.03268V13.7295C4.63158 13.9844 4.73224 14.2288 4.9114 14.4091C5.09056 14.5893 5.33355 14.6905 5.58693 14.6905H5.72196C7.03889 14.7443 8.32867 14.3037 9.3408 13.4545C10.2995 12.6191 10.7789 11.2879 10.7789 9.3794C10.7789 7.47092 10.2995 6.13295 9.3408 5.30436ZM36.8635 8.25877C36.129 8.25877 35.5335 8.8578 35.5335 9.59674C35.5335 10.3357 36.129 10.9347 36.8635 10.9347C37.5981 10.9347 38.1936 10.3357 38.1936 9.59674C38.1936 8.8578 37.5981 8.25877 36.8635 8.25877ZM45.6102 6.76798C45.6754 6.68546 45.7948 6.67177 45.8769 6.73741C45.9589 6.80306 45.9725 6.92317 45.9073 7.00569C45.5568 7.46565 45.0906 7.82319 44.5569 8.04143C44.4624 8.08897 44.3611 8.14331 44.3206 8.04143C44.2801 7.93955 44.3476 7.93955 44.4388 7.89541C44.9146 7.62376 45.316 7.23753 45.6068 6.77137L45.6102 6.76798ZM45.1004 5.57942C45.1713 5.42661 45.2321 5.37227 45.3908 5.46057C45.5494 5.54886 45.4617 5.73563 45.3908 5.88845C45.0018 6.7132 44.3989 7.41711 43.6455 7.92597C43.5071 8.02445 43.3619 8.13312 43.2674 7.9837C43.1729 7.83428 43.2775 7.8173 43.4126 7.71882C44.1354 7.14857 44.7138 6.41428 45.1004 5.57603V5.57942Z" fill="white"></path>
</svg>
